<?xml version="1.0" encoding="utf-8"?>
<!-- Generator: Adobe Illustrator 16.0.4, SVG Export Plug-In . SVG Version: 6.00 Build 0)  -->
<!DOCTYPE svg PUBLIC "-//W3C//DTD SVG 1.1//EN" "http://www.w3.org/Graphics/SVG/1.1/DTD/svg11.dtd">
<svg version="1.1" id="Layer_1" xmlns="http://www.w3.org/2000/svg" xmlns:xlink="http://www.w3.org/1999/xlink" x="0px" y="0px"
	 width="553.927px" height="234.975px" viewBox="0 0 553.927 234.975" enable-background="new 0 0 553.927 234.975"
	 xml:space="preserve">
<path fill="none" stroke="#F3AD26" stroke-miterlimit="10" d="M19.025,204.041c0,0,63.499-116.666,251.499-116.666
	s240.113-22,283.057-44"/>
<path fill="none" stroke="#F3AD26" stroke-miterlimit="10" d="M61.524,208.875c0,0-3.398-50.146,37.5-79.422"/>
<path fill="none" stroke="#F3AD26" stroke-miterlimit="10" d="M553.581,76.042c0,0-85.057,34-130.39,111.999"/>
<path fill="none" stroke="#F3AD26" stroke-miterlimit="10" d="M463.191,207.898c0,0-15.038-60.344,27.814-94.767"/>
<path fill="none" stroke="#F3AD26" stroke-miterlimit="10" d="M247.888,87.956C218.524,74.875,178.524,52.542,65.19,47.375"/>
<path fill="none" stroke="#F3AD26" stroke-miterlimit="10" d="M61.524,77.392c0,0,64.79-23.93,127-12.553"/>
<path fill="none" stroke="#F3AD26" stroke-miterlimit="10" d="M170.734,184.709c41.124-44,71.398-43.861,146.124-45.334
	c85.947-1.691,164.567-70.554,162.083-68.412"/>
<path fill="none" stroke="#FFFFFF" stroke-miterlimit="10" d="M262.858,163.709"/>
<path fill="none" stroke="#F3AD26" stroke-miterlimit="10" d="M203.524,206.041c0,0,2.386-60.268,62.026-64.967"/>
<path fill="none" stroke="#F3AD26" stroke-miterlimit="10" d="M0.274,179.791c0,0,27.739-18.158,57.869-21.078"/>
<path fill="none" stroke="#F3AD26" stroke-miterlimit="10" d="M73.024,95.042c0,0,14.75-24.127,43.105-30.966"/>
<path fill="none" stroke="#F3AD26" stroke-miterlimit="10" d="M74.524,28.792c0,0,23.493,16.305,47.334,23.583"/>
<path fill="none" stroke="#F3AD26" stroke-miterlimit="10" d="M322.524,54.875c0-1.833,58.334-52.583,151.667-54.375"/>
<path fill="none" stroke="#F3AD26" stroke-miterlimit="10" d="M347.524,70.291c0,0,2.109-34.424,39.555-53.003"/>
<path fill="none" stroke="#F3AD26" stroke-miterlimit="10" d="M291.315,234.707c0,0,0.525-73.219,83.525-105.717"/>
<path fill="none" stroke="#F3AD26" stroke-miterlimit="10" d="M310.857,234.707c0,0-15.291-28.52,0.021-56.426"/>
<path fill="none" stroke="#F3AD26" stroke-miterlimit="10" d="M488.385,234.707c3.485-5.523,29.555-53.314,65.195-70.998"/>
<path fill="none" stroke="#FFFFFF" stroke-miterlimit="10" d="M406.191,172.041"/>
<path fill="none" stroke="#F3AD26" stroke-miterlimit="10" d="M463.524,35.542c3-0.5,62.613-8.583,90.057-35.042"/>
<path fill="none" stroke="#F3AD26" stroke-miterlimit="10" d="M413.41,113.132c0,0-48.886,24.909-43.386,78.909"/>
<path fill="none" stroke="#F3AD26" stroke-miterlimit="10" d="M242.25,88.289c0,0-82.227-0.333-98.227,68.252"/>
<path fill="none" stroke="#F3AD26" stroke-miterlimit="10" d="M247.888,40.583c0,0,31.972-27.625,77.054-40.083"/>
<rect x="245.263" y="37.959" transform="matrix(0.7071 0.7072 -0.7072 0.7071 101.315 -163.4064)" fill="#FFFFFF" width="5.25" height="5.25"/>
<rect x="141.399" y="152.85" transform="matrix(0.9863 0.1648 -0.1648 0.9863 27.5953 -21.6118)" fill="#FFFFFF" width="5.25" height="5.249"/>
<rect x="243.97" y="84.831" transform="matrix(0.9824 0.1869 -0.1869 0.9824 20.6853 -44.5383)" fill="#FFFFFF" width="5.25" height="5.25"/>
<rect x="257.636" y="138.916" transform="matrix(0.9932 -0.1161 0.1161 0.9932 -14.6712 31.1695)" fill="#FFFFFF" width="5.249" height="5.249"/>
<rect x="318.529" y="52.763" transform="matrix(0.7017 -0.7125 0.7125 0.7017 56.3398 245.3384)" fill="#FFFFFF" width="5.25" height="5.25"/>
<rect x="344.9" y="69.167" transform="matrix(0.0792 -0.9969 0.9969 0.0792 248.4174 412.5334)" fill="#FFFFFF" width="5.249" height="5.25"/>
<rect x="385.579" y="13.916" transform="matrix(0.9528 -0.3036 0.3036 0.9528 13.2968 118.6224)" fill="#FFFFFF" width="5.249" height="5.25"/>
<rect x="460.079" y="32.916" transform="matrix(0.9979 -0.0651 0.0651 0.9979 -1.3324 30.2083)" fill="#FFFFFF" width="5.248" height="5.25"/>
<rect x="475.75" y="68.289" transform="matrix(0.9308 -0.3655 0.3655 0.9308 7.1766 179.7417)" fill="#FFFFFF" width="5.248" height="5.25"/>
<rect x="404.25" y="113.91" transform="matrix(0.9021 -0.4316 0.4316 0.9021 -10.4499 187.0152)" fill="#FFFFFF" width="5.248" height="5.25"/>
<rect x="368.009" y="127.77" transform="matrix(0.9463 -0.3234 0.3234 0.9463 -22.2527 126.8782)" fill="#FFFFFF" width="5.248" height="5.249"/>
<rect x="306.668" y="178.363" transform="matrix(0.4836 -0.8753 0.8753 0.4836 1.2978 364.1744)" fill="#FFFFFF" width="5.246" height="5.248"/>
<rect x="482.054" y="115.771" transform="matrix(0.7411 -0.6714 0.6714 0.7411 45.9809 356.04)" fill="#FFFFFF" width="5.248" height="5.249"/>
<rect x="420.566" y="185.417" transform="matrix(0.4744 -0.8803 0.8803 0.4744 56.8976 471.3783)" fill="#FFFFFF" width="5.249" height="5.25"/>
<rect x="460.812" y="206.5" transform="matrix(-0.241 -0.9705 0.9705 -0.241 372.1426 709.2971)" fill="#FFFFFF" width="5.248" height="5.251"/>
<rect x="367.312" y="189.416" transform="matrix(-0.0954 -0.9954 0.9954 -0.0954 214.0828 578.6188)" fill="#FFFFFF" width="5.249" height="5.251"/>
<rect x="166.637" y="183.678" transform="matrix(0.6939 -0.7201 0.7201 0.6939 -82.3409 178.9186)" fill="#FFFFFF" width="5.248" height="5.25"/>
<rect x="200.9" y="204.869" transform="matrix(0.0065 -1 1 0.0065 -5.2908 409.6629)" fill="#FFFFFF" width="5.248" height="5.25"/>
<rect x="54.521" y="156.087" transform="matrix(0.4222 0.9065 -0.9065 0.4222 176.8935 39.9039)" fill="#FFFFFF" width="5.248" height="5.25"/>
<rect x="96.399" y="126.364" transform="matrix(0.5395 0.842 -0.842 0.5395 154.2079 -23.9766)" fill="#FFFFFF" width="5.249" height="5.25"/>
<rect x="69.855" y="93.24" transform="matrix(0.7951 0.6065 -0.6065 0.7951 72.9987 -24.3148)" fill="#FFFFFF" width="5.25" height="5.249"/>
<rect x="57.23" y="75.49" transform="matrix(0.3858 0.9226 -0.9226 0.3858 108.8292 -7.2436)" fill="#FFFFFF" width="5.25" height="5.25"/>
<rect x="113.212" y="61.45" transform="matrix(0.1726 0.985 -0.985 0.1726 158.953 -61.0834)" fill="#FFFFFF" width="5.25" height="5.251"/>
<rect x="181.274" y="60.763" transform="matrix(-0.2016 0.9795 -0.9795 -0.2016 283.0662 -103.9521)" fill="#FFFFFF" width="5.25" height="5.251"/>
<rect x="117.087" y="48.826" transform="matrix(-0.1838 0.983 -0.983 -0.1838 192.2877 -56.7654)" fill="#FFFFFF" width="5.25" height="5.25"/>
<rect x="60.665" y="44.749" transform="matrix(-0.0699 0.9976 -0.9976 -0.0699 114.9753 -12.4459)" fill="#FFFFFF" width="5.25" height="5.251"/>
<rect x="70.399" y="25.193" transform="matrix(-0.5581 0.8298 -0.8298 -0.5581 136.8603 -17.2498)" fill="#FFFFFF" width="5.25" height="5.25"/>
<rect x="58.898" y="205.274" transform="matrix(0.0878 0.9961 -0.9961 0.0878 263.2184 128.3621)" fill="#FFFFFF" width="5.251" height="5.25"/>
<rect x="15.4" y="202.916" transform="matrix(0.8835 0.4684 -0.4684 0.8835 98.3843 15.5034)" fill="#FFFFFF" width="5.249" height="5.25"/>
</svg>
