<?xml version="1.0" encoding="utf-8"?>
<!-- Generator: Adobe Illustrator 16.0.4, SVG Export Plug-In . SVG Version: 6.00 Build 0)  -->
<!DOCTYPE svg PUBLIC "-//W3C//DTD SVG 1.1//EN" "http://www.w3.org/Graphics/SVG/1.1/DTD/svg11.dtd">
<svg version="1.1" id="Layer_1" xmlns="http://www.w3.org/2000/svg" xmlns:xlink="http://www.w3.org/1999/xlink" x="0px" y="0px"
	 width="553.926px" height="234.975px" viewBox="0 0 553.926 234.975" enable-background="new 0 0 553.926 234.975"
	 xml:space="preserve">
<path fill="none" stroke="#FFFFFF" stroke-miterlimit="10" d="M19.025,204.041c0,0,63.499-116.666,251.499-116.666
	s240.113-22,283.057-44"/>
<path fill="none" stroke="#FFFFFF" stroke-miterlimit="10" d="M61.524,208.875c0,0-3.398-50.146,37.5-79.422"/>
<path fill="none" stroke="#FFFFFF" stroke-miterlimit="10" d="M553.581,76.042c0,0-85.057,34-130.389,111.999"/>
<path fill="none" stroke="#FFFFFF" stroke-miterlimit="10" d="M463.192,207.898c0,0-15.039-60.344,27.812-94.767"/>
<path fill="none" stroke="#FFFFFF" stroke-miterlimit="10" d="M247.888,87.956C218.524,74.875,178.524,52.542,65.19,47.375"/>
<path fill="none" stroke="#FFFFFF" stroke-miterlimit="10" d="M61.524,77.392c0,0,64.79-23.93,127-12.553"/>
<path fill="none" stroke="#FFFFFF" stroke-miterlimit="10" d="M170.734,184.709c41.124-44,71.398-43.861,146.124-45.334
	c85.947-1.691,164.566-70.555,162.084-68.412"/>
<path fill="none" stroke="#FFFFFF" stroke-miterlimit="10" d="M262.858,163.709"/>
<path fill="none" stroke="#FFFFFF" stroke-miterlimit="10" d="M203.524,206.041c0,0,2.386-60.269,62.026-64.967"/>
<path fill="none" stroke="#FFFFFF" stroke-miterlimit="10" d="M0.274,179.791c0,0,27.739-18.158,57.869-21.078"/>
<path fill="none" stroke="#FFFFFF" stroke-miterlimit="10" d="M73.024,95.042c0,0,14.75-24.127,43.105-30.966"/>
<path fill="none" stroke="#FFFFFF" stroke-miterlimit="10" d="M74.524,28.792c0,0,23.493,16.305,47.334,23.583"/>
<path fill="none" stroke="#FFFFFF" stroke-miterlimit="10" d="M322.524,54.875c0-1.833,58.334-52.583,151.668-54.375"/>
<path fill="none" stroke="#FFFFFF" stroke-miterlimit="10" d="M347.524,70.291c0,0,2.109-34.424,39.555-53.003"/>
<path fill="none" stroke="#FFFFFF" stroke-miterlimit="10" d="M291.315,234.707c0,0,0.525-73.219,83.525-105.717"/>
<path fill="none" stroke="#FFFFFF" stroke-miterlimit="10" d="M310.858,234.707c0,0-15.292-28.521,0.02-56.426"/>
<path fill="none" stroke="#FFFFFF" stroke-miterlimit="10" d="M488.385,234.707c3.484-5.523,29.555-53.314,65.195-70.998"/>
<path fill="none" stroke="#FFFFFF" stroke-miterlimit="10" d="M406.192,172.041"/>
<path fill="none" stroke="#FFFFFF" stroke-miterlimit="10" d="M463.524,35.542c3-0.5,62.613-8.583,90.057-35.042"/>
<path fill="none" stroke="#FFFFFF" stroke-miterlimit="10" d="M413.411,113.132c0,0-48.887,24.909-43.387,78.909"/>
<path fill="none" stroke="#FFFFFF" stroke-miterlimit="10" d="M242.25,88.289c0,0-82.227-0.333-98.227,68.252"/>
<path fill="none" stroke="#FFFFFF" stroke-miterlimit="10" d="M247.888,40.583c0,0,31.972-27.625,77.054-40.083"/>
<rect x="245.271" y="37.972" transform="matrix(-0.707 -0.7072 0.7072 -0.707 394.4513 244.6113)" fill="#F3AC25" width="5.25" height="5.25"/>
<rect x="141.399" y="152.843" transform="matrix(-0.9863 -0.1648 0.1648 -0.9863 260.4541 332.548)" fill="#F3AC25" width="5.25" height="5.249"/>
<rect x="243.97" y="84.842" transform="matrix(-0.9824 -0.1869 0.1869 -0.9824 472.4922 219.4889)" fill="#F3AC25" width="5.25" height="5.25"/>
<rect x="257.628" y="138.907" transform="matrix(-0.9932 0.1161 -0.1161 -0.9932 535.1758 251.8916)" fill="#F3AC25" width="5.249" height="5.248"/>
<rect x="318.533" y="52.757" transform="matrix(-0.7017 0.7125 -0.7125 -0.7017 585.97 -134.5755)" fill="#F3AC25" width="5.25" height="5.25"/>
<rect x="344.886" y="69.147" transform="matrix(-0.0792 0.9969 -0.9969 -0.0792 446.5954 -268.9588)" fill="#F3AC25" width="5.25" height="5.251"/>
<rect x="385.574" y="13.899" transform="matrix(-0.9528 0.3036 -0.3036 -0.9528 763.0924 -85.5838)" fill="#F3AC25" width="5.25" height="5.251"/>
<rect x="460.088" y="32.927" transform="matrix(-0.9979 0.0651 -0.0651 -0.9979 926.7578 40.9016)" fill="#F3AC25" width="5.249" height="5.25"/>
<rect x="475.743" y="68.278" transform="matrix(-0.9308 0.3655 -0.3655 -0.9308 949.5531 -37.9332)" fill="#F3AC25" width="5.248" height="5.25"/>
<rect x="404.263" y="113.91" transform="matrix(-0.9021 0.4315 -0.4315 -0.9021 824.2289 46.083)" fill="#F3AC25" width="5.248" height="5.249"/>
<rect x="368.023" y="127.783" transform="matrix(-0.9463 0.3234 -0.3234 -0.9463 763.55 133.9562)" fill="#F3AC25" width="5.249" height="5.25"/>
<rect x="306.666" y="178.353" transform="matrix(-0.4836 0.8753 -0.8753 -0.4836 617.2719 -2.2125)" fill="#F3AC25" width="5.246" height="5.248"/>
<rect x="482.043" y="115.745" transform="matrix(-0.7411 0.6714 -0.6714 -0.7411 923.3083 -119.3409)" fill="#F3AC25" width="5.248" height="5.25"/>
<rect x="420.569" y="185.426" transform="matrix(-0.4745 0.8803 -0.8803 -0.4745 789.5195 -95.2515)" fill="#F3AC25" width="5.248" height="5.249"/>
<rect x="460.787" y="206.508" transform="matrix(0.2408 0.9706 -0.9706 0.2408 554.8094 -290.999)" fill="#F3AC25" width="5.248" height="5.25"/>
<rect x="367.325" y="189.437" transform="matrix(0.0956 0.9954 -0.9954 0.0956 525.7527 -194.5587)" fill="#F3AC25" width="5.249" height="5.252"/>
<rect x="166.642" y="183.684" transform="matrix(-0.6939 0.7201 -0.7201 -0.6939 420.8762 193.6941)" fill="#F3AC25" width="5.248" height="5.25"/>
<rect x="200.902" y="204.863" transform="matrix(-0.0064 1 -1 -0.0064 412.3165 5.2981)" fill="#F3AC25" width="5.248" height="5.25"/>
<rect x="54.523" y="156.089" transform="matrix(-0.4222 -0.9065 0.9065 -0.4222 -62.6016 277.5255)" fill="#F3AC25" width="5.248" height="5.25"/>
<rect x="96.398" y="126.366" transform="matrix(-0.5394 -0.842 0.842 -0.5394 43.8245 281.9518)" fill="#F3AC25" width="5.249" height="5.25"/>
<rect x="69.861" y="93.242" transform="matrix(-0.7951 -0.6064 0.6064 -0.7951 71.9861 216.0509)" fill="#F3AC25" width="5.25" height="5.249"/>
<rect x="57.227" y="75.49" transform="matrix(-0.3859 -0.9226 0.9226 -0.3859 10.8806 163.4741)" fill="#F3AC25" width="5.25" height="5.25"/>
<rect x="113.207" y="61.45" transform="matrix(-0.1725 -0.985 0.985 -0.1725 72.6993 189.2246)" fill="#F3AC25" width="5.251" height="5.251"/>
<rect x="181.278" y="60.772" transform="matrix(0.2015 -0.9795 0.9795 0.2015 84.7438 230.7508)" fill="#F3AC25" width="5.25" height="5.251"/>
<rect x="117.083" y="48.83" transform="matrix(0.1838 -0.983 0.983 0.1838 47.132 159.6692)" fill="#F3AC25" width="5.251" height="5.25"/>
<rect x="60.665" y="44.755" transform="matrix(0.0699 -0.9976 0.9976 0.0699 11.5995 107.2024)" fill="#F3AC25" width="5.25" height="5.251"/>
<rect x="70.397" y="25.195" transform="matrix(0.5581 -0.8298 0.8298 0.5581 9.1837 72.885)" fill="#F3AC25" width="5.25" height="5.25"/>
<rect x="58.907" y="205.275" transform="matrix(-0.0879 -0.9961 0.9961 -0.0879 -140.1561 287.4633)" fill="#F3AC25" width="5.251" height="5.25"/>
<rect x="15.409" y="202.917" transform="matrix(-0.8836 -0.4683 0.4683 -0.8836 -62.2875 395.5974)" fill="#F3AC25" width="5.249" height="5.25"/>
</svg>
