<?xml version="1.0" encoding="utf-8"?>
<!-- Generator: Adobe Illustrator 16.0.4, SVG Export Plug-In . SVG Version: 6.00 Build 0)  -->
<!DOCTYPE svg PUBLIC "-//W3C//DTD SVG 1.1//EN" "http://www.w3.org/Graphics/SVG/1.1/DTD/svg11.dtd">
<svg version="1.1" id="Layer_1" xmlns="http://www.w3.org/2000/svg" xmlns:xlink="http://www.w3.org/1999/xlink" x="0px" y="0px"
	 width="87.705px" height="87.705px" viewBox="0 0 87.705 87.705" enable-background="new 0 0 87.705 87.705" xml:space="preserve">
<path fill-rule="evenodd" clip-rule="evenodd" fill="#FFCC02" d="M44.006,0.334c-24.219,0-43.852,19.634-43.852,43.853
	s19.633,43.853,43.852,43.853c24.219,0,43.852-19.634,43.852-43.853S68.225,0.334,44.006,0.334z M44.006,10.812
	c5.969,0,10.809,4.839,10.809,10.808c0,5.97-4.84,10.809-10.809,10.809c-5.969,0-10.808-4.839-10.808-10.809
	C33.198,15.65,38.037,10.812,44.006,10.812z M63.346,71.351c-1.172,0.112-2.861,0.174-4.779,0.205l4.754-19.311H44.006H24.69
	l4.755,19.311c-1.917-0.031-3.608-0.093-4.779-0.205c-4.003-0.382-10.152-6.423-6.009-14.919l7.459-13.882
	c0,0,2.487-7.46,10.775-7.46c1.922,0,3.461,0,4.698,0c4.094,0,4.833,0,4.833,0c1.236,0,2.777,0,4.699,0
	c8.287,0,10.773,7.46,10.773,7.46l7.461,13.882C73.499,64.928,67.35,70.969,63.346,71.351z"/>
</svg>
