<?xml version="1.0" encoding="utf-8"?>
<!-- Generator: Adobe Illustrator 16.0.4, SVG Export Plug-In . SVG Version: 6.00 Build 0)  -->
<!DOCTYPE svg PUBLIC "-//W3C//DTD SVG 1.1//EN" "http://www.w3.org/Graphics/SVG/1.1/DTD/svg11.dtd">
<svg version="1.1" id="Layer_1" xmlns="http://www.w3.org/2000/svg" xmlns:xlink="http://www.w3.org/1999/xlink" x="0px" y="0px"
	 width="87.705px" height="87.705px" viewBox="0 0 87.705 87.705" enable-background="new 0 0 87.705 87.705" xml:space="preserve">
<g>
	<path fill-rule="evenodd" clip-rule="evenodd" fill="#FFCC02" d="M12.873,58.028c-3.411,0-6.635,1.195-9.209,3.374
		c3.924,8.973,10.755,16.382,19.312,21.023c0,0,0.001-0.001,0.001-0.001c5.572-5.572,5.572-14.639,0-20.21
		C20.279,59.516,16.689,58.028,12.873,58.028z"/>
	<path fill-rule="evenodd" clip-rule="evenodd" fill="#FFCC02" d="M43.852,0C19.633,0,0,19.634,0,43.853
		c0,2.376,0.195,4.706,0.559,6.979c3.707-2.133,7.922-3.274,12.314-3.274c3.912,0,7.677,0.922,11.076,2.627l30.486-30.486
		l11.063,0.917l0.917,11.064l-7.109,7.108h-6.749v6.749l-0.199,0.199H45.61v6.748l-0.195,0.194h-6.749v6.75l-3.08,3.08
		c3.327,7.729,2.539,16.809-2.362,23.893c3.403,0.847,6.961,1.304,10.627,1.304c24.219,0,43.853-19.634,43.853-43.853
		S68.071,0,43.852,0z"/>
</g>
</svg>
