<?xml version="1.0" encoding="utf-8"?>
<!-- Generator: Adobe Illustrator 16.0.4, SVG Export Plug-In . SVG Version: 6.00 Build 0)  -->
<!DOCTYPE svg PUBLIC "-//W3C//DTD SVG 1.1//EN" "http://www.w3.org/Graphics/SVG/1.1/DTD/svg11.dtd">
<svg version="1.1" id="Layer_1" xmlns="http://www.w3.org/2000/svg" xmlns:xlink="http://www.w3.org/1999/xlink" x="0px" y="0px"
	 width="85px" height="85.001px" viewBox="0 0 85 85.001" enable-background="new 0 0 85 85.001" xml:space="preserve">
<g>
	<path fill="#FFCD03" d="M42.501,0C19.028,0,0,19.028,0,42.5c0,8.81,2.682,16.996,7.273,23.782L22.13,51.424
		c-1.32-2.895-2.065-6.104-2.065-9.488c0-12.728,10.355-23.083,23.081-23.083c12.728,0,23.081,10.355,23.081,23.083
		c0,12.727-10.354,23.081-23.081,23.081c-3.761,0-7.305-0.917-10.443-2.523L17.987,77.209c6.928,4.902,15.381,7.792,24.514,7.792
		C65.973,85.001,85,65.974,85,42.5C85,19.028,65.973,0,42.501,0z"/>
	<path fill="#FFCD03" d="M58.034,41.936c0-8.209-6.678-14.889-14.888-14.889c-8.208,0-14.887,6.679-14.887,14.889
		c0,8.209,6.679,14.888,14.887,14.888C51.356,56.823,58.034,50.145,58.034,41.936z"/>
</g>
</svg>
