<?xml version="1.0" encoding="utf-8"?>
<!-- Generator: Adobe Illustrator 16.0.4, SVG Export Plug-In . SVG Version: 6.00 Build 0)  -->
<!DOCTYPE svg PUBLIC "-//W3C//DTD SVG 1.1//EN" "http://www.w3.org/Graphics/SVG/1.1/DTD/svg11.dtd">
<svg version="1.1" id="Layer_1" xmlns="http://www.w3.org/2000/svg" xmlns:xlink="http://www.w3.org/1999/xlink" x="0px" y="0px"
	 width="401.354px" height="98.015px" viewBox="507.178 -314.05 401.354 98.015"
	 enable-background="new 507.178 -314.05 401.354 98.015" xml:space="preserve">
<g>
	<g>
		<path fill="#FFFFFF" d="M508.426-293.12c-0.58,0.271-0.929,0.695-1.045,1.275c-0.115,0.58-0.175,1.414-0.175,2.494v73.305
			c2.322,0,4.14,0,5.455,0c1.313,0,2.263-0.059,2.845-0.172c0.58-0.117,0.928-0.312,1.043-0.582
			c0.117-0.271,0.174-0.639,0.174-1.104v-75.741c-2.319,0-4.139,0.02-5.453,0.059C509.952-293.546,509.006-293.392,508.426-293.12z"
			/>
		<path fill="#FFFFFF" d="M538.407-293.644H526.92c-1.316,0-1.974,0.659-1.974,1.973v75.625c2.319,0,4.119,0,5.396,0
			c1.274,0,2.203-0.059,2.784-0.172c0.58-0.117,0.929-0.312,1.044-0.582c0.116-0.271,0.176-0.639,0.176-1.104v-7.996
			c0-19.19,24.545-19.126,25.24-39.937c0.11-1.264,0.174-2.838,0.174-4.83c0-8.124-1.724-13.983-5.164-17.581
			C551.155-291.845,545.758-293.644,538.407-293.644z M542.356-255.129c-7.339,6.59-7.968,9.113-8.009,9.646v-39.923h5.804
			c3.401,0,5.78,1.26,7.137,3.771c1.353,2.516,2.031,5.824,2.031,9.923C549.319-265.287,549.315-261.379,542.356-255.129z"/>
		<path fill="#FFFFFF" d="M576.75-226.712c0-11.374,11.812-22.917,20.188-24.083c0-0.012,0.003-0.027,0.003-0.041v-10.605
			c-6.939,0-18.064,8.188-20.189,15.688l-0.004,0.008v-39.425h18.451c0.465,0,0.812-0.078,1.045-0.234
			c0.231-0.154,0.405-0.521,0.522-1.1c0.115-0.582,0.174-1.432,0.174-2.555c0-1.121,0-2.648,0-4.584h-27.735
			c-0.465,0-0.832,0.118-1.104,0.348c-0.271,0.232-0.481,0.467-0.639,0.697c-0.154,0.311-0.23,0.619-0.23,0.928v75.625h27.505
			c0.463,0,0.812-0.074,1.043-0.23c0.231-0.154,0.407-0.504,0.522-1.045s0.19-1.373,0.231-2.494
			c0.037-1.121,0.058-2.689,0.058-4.703h-19.845v-2.203L576.75-226.712z"/>
	</g>
	<path fill="#FFFFFF" d="M575.905-300.988c0.776-2.682,3.248-4.645,6.181-4.645c2.935,0,5.403,1.963,6.182,4.645h8.558
		c-0.887-7.354-7.142-13.062-14.737-13.062s-13.851,5.706-14.736,13.062H575.905z"/>
</g>
<g>
	<path fill="#F3AC25" d="M507.178-308.513h1.417l2.306,3.581l2.305-3.581h1.417v7.573h-1.331v-5.431l-2.391,3.57h-0.043
		l-2.369-3.548v5.409h-1.311V-308.513L507.178-308.513z"/>
	<path fill="#F3AC25" d="M516.781-304.705v-0.022c0-2.131,1.646-3.916,3.972-3.916c2.325,0,3.948,1.763,3.948,3.895v0.021
		c0,2.131-1.646,3.917-3.971,3.917C518.404-300.81,516.781-302.574,516.781-304.705z M523.304-304.705v-0.022
		c0-1.471-1.069-2.694-2.573-2.694c-1.505,0-2.555,1.201-2.555,2.672v0.021c0,1.472,1.07,2.694,2.575,2.694
		C522.256-302.034,523.304-303.234,523.304-304.705z"/>
	<path fill="#F3AC25" d="M526.525-304.705v-0.022c0-2.131,1.646-3.916,3.971-3.916s3.948,1.763,3.948,3.895v0.021
		c0,2.131-1.646,3.917-3.972,3.917C528.148-300.81,526.525-302.574,526.525-304.705z M533.048-304.705v-0.022
		c0-1.471-1.071-2.694-2.575-2.694c-1.503,0-2.553,1.201-2.553,2.672v0.021c0,1.472,1.07,2.694,2.574,2.694
		C531.997-302.033,533.048-303.234,533.048-304.705z"/>
	<path fill="#F3AC25" d="M536.603-308.513h2.822c2.381,0,4.024,1.633,4.024,3.765v0.021c0,2.131-1.646,3.787-4.024,3.787h-2.822
		V-308.513z M539.426-302.152c1.591,0,2.629-1.071,2.629-2.553v-0.022c0-1.482-1.038-2.575-2.629-2.575h-1.492v5.15H539.426z"/>
	<path fill="#F3AC25" d="M545.61-308.513h1.33v6.361h3.981v1.211h-5.312V-308.513z"/>
	<path fill="#F3AC25" d="M552.851-308.513h5.615v1.19h-4.284v1.969h3.798v1.19h-3.798v2.034h4.339v1.19h-5.67V-308.513z"/>
</g>
<g>
	<g>
		<path fill="#FFFFFF" d="M648.749-231.206h5.808c3.43,0,5.598,1.957,5.598,4.924v0.042c0,3.304-2.651,5.029-5.893,5.029h-2.925
			v4.734h-2.588V-231.206z M654.346-223.547c1.957,0,3.177-1.094,3.177-2.63v-0.042c0-1.726-1.241-2.631-3.177-2.631h-3.01v5.303
			H654.346z"/>
		<path fill="#FFFFFF" d="M663.014-231.206h10.921v2.314h-8.333v3.83h7.386v2.314h-7.386v3.956h8.438v2.314h-11.026V-231.206z"/>
		<path fill="#FFFFFF" d="M676.333-218.623l1.557-1.852c1.41,1.221,2.819,1.915,4.65,1.915c1.599,0,2.609-0.736,2.609-1.852v-0.042
			c0-1.053-0.59-1.62-3.325-2.252c-3.135-0.758-4.902-1.684-4.902-4.397v-0.042c0-2.525,2.104-4.271,5.029-4.271
			c2.146,0,3.851,0.652,5.344,1.852l-1.389,1.957c-1.325-0.989-2.651-1.516-3.998-1.516c-1.515,0-2.398,0.779-2.398,1.747v0.042
			c0,1.136,0.674,1.641,3.493,2.314c3.114,0.758,4.734,1.873,4.734,4.313v0.042c0,2.757-2.167,4.397-5.261,4.397
			C680.225-216.267,678.099-217.045,676.333-218.623z"/>
		<path fill="#FFFFFF" d="M702.508-217.613c-1.241,0.884-2.756,1.39-4.481,1.39c-4.524,0-7.681-3.431-7.681-7.575v-0.042
			c0-4.146,3.198-7.617,7.723-7.617s7.681,3.43,7.681,7.574v0.043c0,1.662-0.526,3.24-1.494,4.523l1.683,1.431l-1.662,1.852
			L702.508-217.613z M700.594-219.317l-2.525-2.146l1.662-1.894l2.546,2.314c0.505-0.778,0.758-1.726,0.758-2.756v-0.042
			c0-2.862-2.083-5.24-5.008-5.24s-4.966,2.336-4.966,5.197v0.043c0,2.861,2.083,5.239,5.008,5.239
			C699.036-218.602,699.899-218.875,700.594-219.317z"/>
		<path fill="#FFFFFF" d="M708.86-222.726v-8.48h2.588v8.375c0,2.735,1.41,4.208,3.725,4.208c2.294,0,3.704-1.389,3.704-4.103v-8.48
			h2.588v8.354c0,4.398-2.483,6.607-6.334,6.607C711.302-216.245,708.86-218.454,708.86-222.726z"/>
		<path fill="#FFFFFF" d="M725.377-231.206h2.588v14.729h-2.588V-231.206z"/>
		<path fill="#FFFFFF" d="M731.121-218.623l1.557-1.852c1.41,1.221,2.819,1.915,4.65,1.915c1.599,0,2.609-0.736,2.609-1.852v-0.042
			c0-1.053-0.59-1.62-3.325-2.252c-3.135-0.758-4.902-1.684-4.902-4.397v-0.042c0-2.525,2.104-4.271,5.029-4.271
			c2.146,0,3.851,0.652,5.344,1.852l-1.389,1.957c-1.325-0.989-2.651-1.516-3.998-1.516c-1.515,0-2.398,0.779-2.398,1.747v0.042
			c0,1.136,0.674,1.641,3.493,2.314c3.114,0.758,4.734,1.873,4.734,4.313v0.042c0,2.757-2.167,4.397-5.261,4.397
			C735.013-216.267,732.887-217.045,731.121-218.623z"/>
		<path fill="#FFFFFF" d="M750.689-231.312h2.398l6.481,14.835h-2.735l-1.494-3.556h-6.965l-1.516,3.556h-2.651L750.689-231.312z
			 M754.392-222.326l-2.546-5.892l-2.525,5.892H754.392z"/>
		<path fill="#FFFFFF" d="M768.824-231.206h10.921v2.314h-8.333v3.83h7.386v2.314h-7.386v3.956h8.438v2.314h-11.026V-231.206z"/>
		<path fill="#FFFFFF" d="M789.654-231.206h10.921v2.314h-8.333v3.83h7.386v2.314h-7.386v3.956h8.438v2.314h-11.026V-231.206z"/>
		<path fill="#FFFFFF" d="M808.212-223.968l-5.155-7.238h3.051l3.661,5.281l3.683-5.281h2.967l-5.134,7.196l5.344,7.533h-3.051
			l-3.871-5.576l-3.894,5.576h-2.967L808.212-223.968z"/>
		<path fill="#FFFFFF" d="M823.129-228.807h-4.671v-2.399h11.952v2.399h-4.672v12.33h-2.609V-228.807z"/>
		<path fill="#FFFFFF" d="M833.354-231.206h10.921v2.314h-8.333v3.83h7.386v2.314h-7.386v3.956h8.438v2.314h-11.026V-231.206z"/>
		<path fill="#FFFFFF" d="M847.661-231.206h2.399l7.891,10.185v-10.185h2.546v14.729h-2.168l-8.122-10.479v10.479h-2.546V-231.206z"
			/>
		<path fill="#FFFFFF" d="M863.505-218.623l1.557-1.852c1.41,1.221,2.819,1.915,4.65,1.915c1.599,0,2.609-0.736,2.609-1.852v-0.042
			c0-1.053-0.59-1.62-3.325-2.252c-3.135-0.758-4.902-1.684-4.902-4.397v-0.042c0-2.525,2.104-4.271,5.029-4.271
			c2.146,0,3.851,0.652,5.344,1.852l-1.389,1.957c-1.325-0.989-2.651-1.516-3.998-1.516c-1.515,0-2.398,0.779-2.398,1.747v0.042
			c0,1.136,0.674,1.641,3.493,2.314c3.114,0.758,4.734,1.873,4.734,4.313v0.042c0,2.757-2.167,4.397-5.261,4.397
			C867.397-216.267,865.271-217.045,863.505-218.623z"/>
		<path fill="#FFFFFF" d="M883.073-231.312h2.398l6.481,14.835h-2.735l-1.494-3.556h-6.965l-1.516,3.556h-2.651L883.073-231.312z
			 M880.338-232.868c0.441-1.642,1.073-2.588,2.356-2.588c1.157,0,2.356,0.82,3.093,0.82c0.61,0,0.863-0.337,1.157-1.01l1.432,0.421
			c-0.463,1.641-1.095,2.588-2.357,2.588c-1.157,0-2.356-0.82-3.093-0.82c-0.61,0-0.862,0.336-1.179,1.03L880.338-232.868z
			 M886.776-222.326l-2.546-5.892l-2.525,5.892H886.776z"/>
		<path fill="#FFFFFF" d="M893.129-223.799v-0.042c0-4.146,3.198-7.617,7.723-7.617s7.681,3.43,7.681,7.574v0.043
			c0,4.145-3.199,7.617-7.723,7.617C896.285-216.224,893.129-219.654,893.129-223.799z M905.817-223.799v-0.042
			c0-2.862-2.083-5.24-5.008-5.24s-4.966,2.336-4.966,5.197v0.043c0,2.861,2.083,5.239,5.008,5.239S905.817-220.938,905.817-223.799
			z"/>
	</g>
</g>
</svg>
