<?xml version="1.0" encoding="utf-8"?>
<!-- Generator: Adobe Illustrator 16.0.4, SVG Export Plug-In . SVG Version: 6.00 Build 0)  -->
<!DOCTYPE svg PUBLIC "-//W3C//DTD SVG 1.1//EN" "http://www.w3.org/Graphics/SVG/1.1/DTD/svg11.dtd">
<svg version="1.1" id="Layer_1" xmlns="http://www.w3.org/2000/svg" xmlns:xlink="http://www.w3.org/1999/xlink" x="0px" y="0px"
	 width="224.814px" height="98.005px" viewBox="507.179 -314.05 224.814 98.005"
	 enable-background="new 507.179 -314.05 224.814 98.005" xml:space="preserve">
<g>
	<g>
		<path fill="#FFFFFF" d="M648.715-231.507h10.922v2.313h-8.333v3.83h7.386v2.314h-7.386v3.956h8.438v2.313h-11.026V-231.507z"/>
		<path fill="#FFFFFF" d="M663.023-231.507h2.399l7.891,10.185v-10.185h2.546v14.729h-2.167l-8.123-10.479v10.479h-2.546V-231.507z"
			/>
		<path fill="#FFFFFF" d="M678.865-218.924l1.559-1.853c1.408,1.221,2.818,1.915,4.649,1.915c1.6,0,2.608-0.736,2.608-1.852v-0.042
			c0-1.053-0.588-1.62-3.324-2.252c-3.135-0.758-4.902-1.684-4.902-4.397v-0.042c0-2.525,2.104-4.271,5.029-4.271
			c2.146,0,3.851,0.652,5.344,1.852l-1.389,1.957c-1.325-0.989-2.65-1.516-3.998-1.516c-1.515,0-2.397,0.779-2.397,1.747v0.042
			c0,1.136,0.674,1.641,3.492,2.314c3.114,0.758,4.734,1.873,4.734,4.313v0.042c0,2.757-2.167,4.396-5.261,4.396
			C682.758-216.568,680.633-217.346,678.865-218.924z"/>
		<path fill="#FFFFFF" d="M693.678-231.507h2.589v14.729h-2.589V-231.507z"/>
		<path fill="#FFFFFF" d="M700.409-231.507h2.399l7.891,10.185v-10.185h2.546v14.729h-2.167l-8.122-10.479v10.479h-2.547V-231.507z"
			/>
		<path fill="#FFFFFF" d="M716.591-224.1v-0.042c0-4.146,3.197-7.617,7.722-7.617s7.681,3.43,7.681,7.575v0.042
			c0,4.145-3.197,7.617-7.722,7.617C719.746-216.525,716.591-219.955,716.591-224.1z M729.28-224.1v-0.042
			c0-2.862-2.084-5.24-5.008-5.24c-2.926,0-4.967,2.336-4.967,5.198v0.042c0,2.861,2.084,5.239,5.008,5.239
			C727.239-218.903,729.28-221.239,729.28-224.1z"/>
	</g>
</g>
<g>
	<g>
		<path fill="#F3AC25" d="M508.426-293.12c-0.58,0.271-0.929,0.695-1.045,1.275c-0.115,0.58-0.175,1.414-0.175,2.494v73.305
			c2.322,0,4.14,0,5.455,0c1.314,0,2.263-0.059,2.845-0.172c0.58-0.117,0.928-0.312,1.043-0.582
			c0.117-0.271,0.174-0.639,0.174-1.104v-75.741c-2.32,0-4.139,0.02-5.453,0.059C509.952-293.546,509.006-293.392,508.426-293.12z"
			/>
		<path fill="#F3AC25" d="M538.407-293.644H526.92c-1.316,0-1.974,0.659-1.974,1.973v75.625c2.32,0,4.119,0,5.396,0
			c1.274,0,2.203-0.059,2.784-0.172c0.58-0.117,0.929-0.312,1.044-0.582c0.116-0.271,0.176-0.639,0.176-1.104v-7.996
			c0-19.191,24.545-19.126,25.24-39.937c0.11-1.264,0.174-2.838,0.174-4.83c0-8.124-1.724-13.983-5.164-17.581
			C551.155-291.845,545.758-293.644,538.407-293.644z M542.356-255.129c-7.338,6.59-7.967,9.113-8.008,9.646v-39.923h5.803
			c3.402,0,5.781,1.26,7.137,3.771c1.353,2.516,2.031,5.824,2.031,9.923C549.319-265.287,549.315-261.379,542.356-255.129z"/>
		<path fill="#F3AC25" d="M576.75-226.712c0-11.374,11.812-22.917,20.188-24.083c0-0.012,0.002-0.027,0.002-0.041v-10.605
			c-6.939,0-18.064,8.188-20.189,15.688l-0.004,0.008v-39.425h18.451c0.465,0,0.812-0.078,1.045-0.234
			c0.232-0.154,0.406-0.521,0.523-1.1c0.115-0.582,0.174-1.432,0.174-2.555c0-1.121,0-2.648,0-4.584h-27.736
			c-0.465,0-0.832,0.118-1.104,0.348c-0.271,0.232-0.482,0.467-0.639,0.697c-0.154,0.311-0.23,0.619-0.23,0.928v75.625h27.504
			c0.463,0,0.812-0.074,1.043-0.23c0.232-0.154,0.408-0.504,0.523-1.045s0.19-1.373,0.231-2.494
			c0.037-1.121,0.058-2.689,0.058-4.703h-19.845v-2.203L576.75-226.712z"/>
	</g>
	<path fill="#F3AC25" d="M575.905-300.988c0.777-2.682,3.248-4.645,6.181-4.645c2.934,0,5.403,1.963,6.182,4.645h8.557
		c-0.887-7.355-7.141-13.062-14.737-13.062s-13.851,5.706-14.736,13.062H575.905z"/>
</g>
<g>
	<path fill="#FFFFFF" d="M507.179-308.513h1.417l2.305,3.581l2.305-3.581h1.417v7.573h-1.331v-5.431l-2.391,3.57h-0.043
		l-2.369-3.548v5.409h-1.31V-308.513L507.179-308.513z"/>
	<path fill="#FFFFFF" d="M516.781-304.705v-0.022c0-2.131,1.646-3.916,3.972-3.916c2.325,0,3.948,1.763,3.948,3.895v0.021
		c0,2.131-1.645,3.917-3.971,3.917S516.781-302.574,516.781-304.705z M523.305-304.705v-0.022c0-1.471-1.07-2.694-2.574-2.694
		s-2.554,1.201-2.554,2.672v0.021c0,1.472,1.07,2.694,2.575,2.694C522.256-302.034,523.305-303.234,523.305-304.705z"/>
	<path fill="#FFFFFF" d="M526.525-304.705v-0.022c0-2.131,1.646-3.916,3.971-3.916s3.948,1.763,3.948,3.895v0.021
		c0,2.131-1.645,3.917-3.971,3.917C528.148-300.81,526.525-302.574,526.525-304.705z M533.048-304.705v-0.022
		c0-1.471-1.071-2.694-2.575-2.694c-1.503,0-2.553,1.201-2.553,2.672v0.021c0,1.472,1.07,2.694,2.574,2.694
		C531.997-302.033,533.048-303.234,533.048-304.705z"/>
	<path fill="#FFFFFF" d="M536.603-308.513h2.823c2.381,0,4.024,1.633,4.024,3.765v0.021c0,2.131-1.645,3.787-4.024,3.787h-2.823
		V-308.513z M539.426-302.152c1.591,0,2.629-1.071,2.629-2.553v-0.022c0-1.482-1.038-2.575-2.629-2.575h-1.492v5.15H539.426z"/>
	<path fill="#FFFFFF" d="M545.61-308.513h1.33v6.361h3.982v1.211h-5.312V-308.513z"/>
	<path fill="#FFFFFF" d="M552.852-308.513h5.615v1.19h-4.284v1.969h3.798v1.19h-3.798v2.034h4.339v1.19h-5.67V-308.513z"/>
</g>
</svg>
