<?xml version="1.0" encoding="utf-8"?>
<!-- Generator: Adobe Illustrator 16.0.4, SVG Export Plug-In . SVG Version: 6.00 Build 0)  -->
<!DOCTYPE svg PUBLIC "-//W3C//DTD SVG 1.1//EN" "http://www.w3.org/Graphics/SVG/1.1/DTD/svg11.dtd">
<svg version="1.1" id="Layer_1" xmlns="http://www.w3.org/2000/svg" xmlns:xlink="http://www.w3.org/1999/xlink" x="0px" y="0px"
	 width="79.816px" height="29.111px" viewBox="0 0 79.816 29.111" enable-background="new 0 0 79.816 29.111" xml:space="preserve">
<g>
	<g>
		<polygon fill-rule="evenodd" clip-rule="evenodd" fill="#FFFFFF" points="23.054,11.664 26.705,13.737 26.73,17.931 
			23.112,20.056 19.471,17.984 19.436,13.788 23.054,11.664 		"/>
		<polygon fill-rule="evenodd" clip-rule="evenodd" fill="#FFFFFF" points="19.071,29.111 23.394,26.569 23.361,21.552 19,19.075 
			14.672,21.612 14.708,26.631 19.071,29.111 		"/>
		<polygon fill-rule="evenodd" clip-rule="evenodd" fill="#FFFFFF" points="11.135,20.336 13.957,21.935 13.983,25.186 
			11.183,26.828 8.358,25.224 8.334,21.978 11.135,20.336 		"/>
		<polygon fill-rule="evenodd" clip-rule="evenodd" fill="#FFFFFF" points="4.296,11.686 8.622,14.146 8.655,19.121 4.366,21.641 
			0.036,19.183 0,14.207 4.296,11.686 		"/>
		<polygon fill-rule="evenodd" clip-rule="evenodd" fill="#FFFFFF" points="8.674,5.012 12.178,6.999 12.205,11.03 8.729,13.067 
			5.232,11.079 5.206,7.047 8.674,5.012 		"/>
		<polygon fill-rule="evenodd" clip-rule="evenodd" fill="#FFFFFF" points="19.342,13.023 24.952,9.726 24.904,3.217 19.244,0 
			13.626,3.294 13.674,9.81 19.342,13.023 		"/>
	</g>
	<g>
		<g>
			<path fill="#FFFFFF" d="M34.467,5.013v10.835c0,3.277,1.264,4.929,3.415,4.929c2.241,0,3.473-1.57,3.473-4.929V5.013h4.258
				v10.584c0,5.823-2.946,8.593-7.873,8.593c-4.756,0-7.527-2.656-7.527-8.65V5.013H34.467z"/>
			<path fill="#FFFFFF" d="M49.333,5.013h11.506v3.499h-7.252v4.313h6.778v3.471h-6.778v7.587h-4.253V5.013z"/>
			<path fill="#FFFFFF" d="M79.816,23.015c-1.319,0.447-3.804,1.064-6.295,1.064c-3.444,0-5.94-0.866-7.676-2.518
				c-1.707-1.654-2.659-4.117-2.659-6.889c0.028-6.271,4.59-9.854,10.777-9.854c2.435,0,4.312,0.476,5.237,0.895l-0.897,3.442
				c-1.036-0.477-2.291-0.812-4.368-0.812c-3.552,0-6.269,2.017-6.269,6.104c0,3.919,2.463,6.184,5.962,6.184
				c0.95,0,1.735-0.11,2.073-0.251v-3.972h-2.911v-3.332h7.025V23.015z"/>
		</g>
	</g>
</g>
</svg>
